# xmcd
#
# Track frame offsets:
#	150
#	17392
#	32779
#	50083
#	69639
#	87922
#	107982
#	124558
#	143873
#	167600
#	185479
#	200939
#	216443
#
# Disc length: 3146 seconds
#
# Revision: 1
# Processed by: cddbd v1.5.2PL0 Copyright (c) Steve Scherf et al.
# Submitted via: EZCDAudioConverter 8.3.2.1
#
DISCID=c20c480d
DTITLE=Gordon Chambers - SURRENDER
DYEAR=2016
DGENRE=R&B
TTITLE0=The　Diamond　Inside
TTITLE1=I　Made　It
TTITLE2=It　Might　Be　You
TTITLE3=I'll　Never　Forget　It
TTITLE4=Back　To　Love
TTITLE5=Unconditional
TTITLE6=My　Way
TTITLE7=Love&Help　Somebody
TTITLE8=Imaginary　Lover
TTITLE9=One　Voice
TTITLE10=Circle　Of　Love
TTITLE11=I　Surrender　All
TTITLE12=Dreaming(JAPAN　BONUS　TRACK)
EXTD=
EXTT0=
EXTT1=
EXTT2=
EXTT3=
EXTT4=
EXTT5=
EXTT6=
EXTT7=
EXTT8=
EXTT9=
EXTT10=
EXTT11=
EXTT12=
PLAYORDER=
